<?xml version="1.0" encoding="utf-8"?>
<svg viewBox="371.569 193.902 112.196 112.196" xmlns="http://www.w3.org/2000/svg">
  <g transform="matrix(1, 0, 0, 1, 371.568665, 193.901993)">
    <path d="M 112.196 56.098 C 112.196 87.08 87.08 112.196 56.098 112.196 C 25.116 112.196 0 87.08 0 56.098 C 0 25.116 25.116 0 56.098 0 C 87.08 0 112.196 25.116 112.196 56.098 Z M 67.731 45.618 L 58.555 45.618 L 58.555 39.477 C 58.555 37.174 60.078 36.633 61.16 36.633 L 67.758 36.633 L 67.758 26.506 L 58.664 26.468 C 48.571 26.468 46.277 34.028 46.277 38.856 L 46.277 45.608 L 40.438 45.608 L 40.438 56.042 L 46.277 56.042 L 46.277 85.729 L 58.554 85.729 L 58.554 56.042 L 66.659 56.042 Z" style="fill: rgb(255, 255, 255);"/>
  </g>
</svg>