<?xml version="1.0" encoding="utf-8"?>
<svg viewBox="171.667 -6 512 512" xmlns="http://www.w3.org/2000/svg">
  <path class="cls-1" d="M 536.141 191.243 L 536.141 308.757 C 536.141 336.215 513.882 358.475 486.424 358.475 L 368.911 358.475 C 341.452 358.475 319.193 336.215 319.193 308.757 L 319.193 191.243 C 319.192 163.784 341.452 141.525 368.911 141.525 L 486.424 141.525 C 513.882 141.525 536.141 163.784 536.141 191.243 Z M 368.438 215.804 C 342.115 261.398 375.019 318.391 427.667 318.391 C 427.667 318.391 427.668 318.391 427.668 318.391 C 465.439 318.391 496.059 287.771 496.059 250 C 496.059 237.994 492.899 226.201 486.896 215.804 C 473.734 193.007 450.7 181.608 427.667 181.609 C 404.634 181.608 381.6 193.007 368.438 215.804 Z M 484.816 171.174 C 478.554 182.022 486.383 195.58 498.909 195.58 C 498.909 195.58 498.909 195.58 498.909 195.58 C 498.909 195.58 498.91 195.58 498.91 195.58 C 507.896 195.579 515.18 188.294 515.18 179.309 C 515.18 176.452 514.428 173.646 512.999 171.172 C 509.868 165.749 504.388 163.037 498.908 163.037 C 493.428 163.037 487.947 165.749 484.816 171.174 Z M 472.122 250 C 472.122 257.803 470.068 265.469 466.166 272.227 C 457.611 287.045 442.639 294.455 427.667 294.455 C 412.695 294.455 397.724 287.045 389.169 272.227 C 372.058 242.59 393.446 205.546 427.667 205.545 C 427.667 205.545 427.668 205.545 427.668 205.545 C 452.22 205.546 472.122 225.448 472.122 250 Z M 683.667 250 C 683.667 391.385 569.052 506 427.667 506 C 286.282 506 171.667 391.385 171.667 250 C 171.667 108.615 286.282 -6 427.667 -6 C 569.052 -6 683.667 108.615 683.667 250 Z M 371.167 116.667 C 328.733 116.667 294.334 151.065 294.333 193.5 L 294.333 306.5 C 294.335 348.933 328.734 383.331 371.167 383.333 L 484.168 383.333 C 526.601 383.331 560.999 348.932 561.001 306.5 L 561.001 193.5 C 560.999 151.067 526.601 116.668 484.168 116.667 Z" style="paint-order: fill; fill-rule: nonzero; fill: rgb(255, 255, 255);"/>
</svg>