<?xml version="1.0" encoding="utf-8"?>
<svg viewBox="371.569 193.902 112.196 112.196" xmlns="http://www.w3.org/2000/svg">
  <g transform="matrix(1, 0, 0, 1, 371.268463, 193.602798)">
    <path d="M 112.197 56.098 C 112.197 87.08 87.081 112.196 56.099 112.196 C 25.117 112.196 0.001 87.08 0.001 56.098 C 0.001 25.116 25.117 0 56.099 0 C 87.081 0 112.197 25.116 112.197 56.098 Z M 82.075 39.938 C 84.844 38.279 86.969 35.654 87.972 32.521 C 85.381 34.058 82.51 35.173 79.457 35.774 C 77.011 33.169 73.526 31.541 69.667 31.541 C 62.263 31.541 56.258 37.546 56.258 44.95 C 56.258 46.001 56.377 47.024 56.607 48.006 C 45.463 47.447 35.582 42.109 28.968 33.994 C 27.814 35.974 27.152 38.279 27.152 40.736 C 27.152 45.387 29.521 49.493 33.117 51.897 C 30.92 51.828 28.851 51.225 27.044 50.218 C 27.043 50.275 27.043 50.332 27.043 50.388 C 27.043 56.885 31.667 62.304 37.8 63.535 C 36.676 63.843 35.489 64.006 34.268 64.006 C 33.402 64.006 32.563 63.923 31.745 63.767 C 33.451 69.093 38.402 72.97 44.271 73.079 C 39.681 76.676 33.9 78.819 27.616 78.819 C 26.536 78.819 25.466 78.756 24.419 78.631 C 30.35 82.437 37.4 84.656 44.972 84.656 C 69.636 84.656 83.124 64.224 83.124 46.503 C 83.124 45.922 83.111 45.343 83.085 44.769 C 85.707 42.879 87.98 40.518 89.777 37.829 C 87.373 38.895 84.787 39.616 82.075 39.938 Z" style="fill: rgb(255, 255, 255);"/>
    <g transform="matrix(1, 0, 0, 1, -0.684009, -2.487492)"/>
  </g>
</svg>